<svg width="1200" height="630" viewBox="0 0 1200 630" fill="none" xmlns="http://www.w3.org/2000/svg">
  <defs>
    <linearGradient id="page" x1="600" y1="0" x2="600" y2="630" gradientUnits="userSpaceOnUse">
      <stop stop-color="#FFF9EE"/>
      <stop offset="1" stop-color="#F3E7D0"/>
    </linearGradient>
    <linearGradient id="ink" x1="134" y1="78" x2="1036" y2="562" gradientUnits="userSpaceOnUse">
      <stop stop-color="#263B32"/>
      <stop offset="0.58" stop-color="#1B2F28"/>
      <stop offset="1" stop-color="#13251F"/>
    </linearGradient>
    <linearGradient id="cardGlow" x1="164" y1="132" x2="1080" y2="564" gradientUnits="userSpaceOnUse">
      <stop stop-color="#FFF2CF" stop-opacity="0.16"/>
      <stop offset="0.55" stop-color="#D8A94E" stop-opacity="0.05"/>
      <stop offset="1" stop-color="#89A996" stop-opacity="0.16"/>
    </linearGradient>
    <filter id="softShadow" x="24" y="8" width="1152" height="646" filterUnits="userSpaceOnUse" color-interpolation-filters="sRGB">
      <feFlood flood-opacity="0" result="BackgroundImageFix"/>
      <feColorMatrix in="SourceAlpha" type="matrix" values="0 0 0 0 0 0 0 0 0 0 0 0 0 0 0 0 0 0 127 0" result="hardAlpha"/>
      <feOffset dy="18"/>
      <feGaussianBlur stdDeviation="24"/>
      <feColorMatrix type="matrix" values="0 0 0 0 0.07 0 0 0 0 0.12 0 0 0 0 0.1 0 0 0 0.22 0"/>
      <feBlend mode="normal" in2="BackgroundImageFix" result="effect1_dropShadow_1_1"/>
      <feBlend mode="normal" in="SourceGraphic" in2="effect1_dropShadow_1_1" result="shape"/>
    </filter>
  </defs>

  <rect width="1200" height="630" rx="52" fill="url(#page)"/>
  <g filter="url(#softShadow)">
    <rect x="48" y="42" width="1104" height="546" rx="46" fill="url(#ink)"/>
    <rect x="49.5" y="43.5" width="1101" height="543" rx="44.5" stroke="#F7DCA0" stroke-opacity="0.2" stroke-width="3"/>
  </g>
  <rect x="48" y="42" width="1104" height="546" rx="46" fill="url(#cardGlow)"/>

  <g opacity="0.34" stroke-linecap="round">
    <rect x="98" y="88" width="428" height="116" rx="32" fill="#FFF9EE" fill-opacity="0.045" stroke="#F7DCA0" stroke-opacity="0.12" stroke-width="2"/>
    <rect x="689" y="420" width="388" height="94" rx="32" fill="#FFF9EE" fill-opacity="0.045" stroke="#F7DCA0" stroke-opacity="0.11" stroke-width="2"/>
    <path d="M132 118H408" stroke="#F7DCA0" stroke-width="5"/>
    <path d="M158 152H504" stroke="#F7DCA0" stroke-width="3" opacity="0.74"/>
    <path d="M214 456H964" stroke="#F7DCA0" stroke-width="3" opacity="0.55"/>
    <path d="M178 493H748" stroke="#F7DCA0" stroke-width="5" opacity="0.62"/>
    <path d="M724 86H872L934 130H1068V206H918L848 262H664" stroke="#F7DCA0" stroke-width="4" stroke-linejoin="round"/>
    <path d="M138 530H304L374 488H548V558H382L314 590H164" stroke="#F7DCA0" stroke-width="4" stroke-linejoin="round" opacity="0.5"/>
    <circle cx="1002" cy="176" r="214" stroke="#F7DCA0" stroke-width="5" opacity="0.35"/>
    <circle cx="170" cy="514" r="248" stroke="#FFF9EE" stroke-width="5" opacity="0.08"/>
  </g>

  <g opacity="0.22" stroke-linecap="round">
    <path d="M138 232H348" stroke="#FFF9EE" stroke-width="4"/>
    <path d="M138 260H438" stroke="#FFF9EE" stroke-width="2.5"/>
    <path d="M138 288H388" stroke="#FFF9EE" stroke-width="4"/>
    <path d="M138 316H512" stroke="#FFF9EE" stroke-width="2.5"/>
    <path d="M138 344H462" stroke="#FFF9EE" stroke-width="4"/>
  </g>

  <g opacity="0.12">
    <path d="M956 372H840L770 474L840 576H956M876 470L956 574M954 374L894 444L875 470" stroke="#FFF9EE" stroke-width="18" stroke-linecap="round" stroke-linejoin="round"/>
    <path d="M1052 372H936L866 474L936 576H1052M1000 474H1110" stroke="#FFF9EE" stroke-width="22" stroke-linecap="round" stroke-linejoin="round"/>
    <circle cx="1110" cy="474" r="11" fill="#FFF9EE"/>
  </g>

  <g transform="translate(96 78)" opacity="0.62">
    <rect width="72" height="72" rx="21" fill="#FFF9EE" fill-opacity="0.76"/>
    <path d="M50.4 20.16H30.24L18 36L30.24 51.84H50.4M36.58 35.48L50.16 51.41M49.83 20.88L39.98 31.86L36.6 35.41" stroke="#8C7A2A" stroke-opacity="0.82" stroke-width="4.8" stroke-linecap="round" stroke-linejoin="round"/>
  </g>
  <g transform="translate(184 78)" opacity="0.5">
    <rect width="72" height="72" rx="21" fill="#FFF9EE" fill-opacity="0.7"/>
    <path d="M50.4 20.16H30.24L18 36L30.24 51.84H50.4M41.76 36H57.6" stroke="#8C7A2A" stroke-opacity="0.78" stroke-width="6.6" stroke-linecap="round" stroke-linejoin="round"/>
    <circle cx="57.6" cy="36" r="3.4" fill="#8C7A2A" fill-opacity="0.78"/>
  </g>

  <text x="96" y="256" fill="#FFF9EE" font-family="Optima, Avenir Next, Avenir, Candara, Segoe UI, sans-serif" font-size="102" font-weight="500" letter-spacing="-5.5">Kaze Rwanda</text>
  <text x="102" y="322" fill="#F0C979" font-family="Avenir Next, Avenir, Candara, Segoe UI, sans-serif" font-size="25" font-weight="800" letter-spacing="7">VENUES · INVITES · STAYS</text>
  <text x="100" y="410" fill="#FFF9EE" opacity="0.9" font-family="Avenir Next, Avenir, Candara, Segoe UI, sans-serif" font-size="36" font-weight="500" letter-spacing="-0.4">Find venues, manage invitations, and</text>
  <text x="100" y="458" fill="#FFF9EE" opacity="0.9" font-family="Avenir Next, Avenir, Candara, Segoe UI, sans-serif" font-size="36" font-weight="500" letter-spacing="-0.4">keep hotel stays beautifully organized.</text>

  <g transform="translate(100 516)">
    <rect width="316" height="56" rx="28" fill="#FFF9EE"/>
    <circle cx="34" cy="28" r="6" fill="#D8A94E"/>
    <text x="56" y="37" fill="#1F352D" font-family="Avenir Next, Avenir, Candara, Segoe UI, sans-serif" font-size="24" font-weight="800">kazerwanda.com</text>
  </g>
</svg>
