<svg width="1200" height="630" viewBox="0 0 1200 630" fill="none" xmlns="http://www.w3.org/2000/svg">
  <defs>
    <linearGradient id="page" x1="600" y1="0" x2="600" y2="630" gradientUnits="userSpaceOnUse">
      <stop stop-color="#FBF8F2"/>
      <stop offset="0.58" stop-color="#FFFDF8"/>
      <stop offset="1" stop-color="#F4F7EF"/>
    </linearGradient>
    <linearGradient id="panel" x1="684" y1="86" x2="1096" y2="564" gradientUnits="userSpaceOnUse">
      <stop stop-color="#FEFCF7"/>
      <stop offset="1" stop-color="#F4ECE0"/>
    </linearGradient>
    <linearGradient id="button" x1="112" y1="463" x2="374" y2="463" gradientUnits="userSpaceOnUse">
      <stop stop-color="#3A6B73"/>
      <stop offset="1" stop-color="#C79A52"/>
    </linearGradient>
    <filter id="softShadow" x="24" y="28" width="1152" height="586" filterUnits="userSpaceOnUse" color-interpolation-filters="sRGB">
      <feFlood flood-opacity="0" result="BackgroundImageFix"/>
      <feColorMatrix in="SourceAlpha" type="matrix" values="0 0 0 0 0 0 0 0 0 0 0 0 0 0 0 0 0 0 127 0" result="hardAlpha"/>
      <feOffset dy="18"/>
      <feGaussianBlur stdDeviation="24"/>
      <feColorMatrix type="matrix" values="0 0 0 0 0.13 0 0 0 0 0.11 0 0 0 0 0.07 0 0 0 0.14 0"/>
      <feBlend mode="normal" in2="BackgroundImageFix" result="effect1_dropShadow_1_1"/>
      <feBlend mode="normal" in="SourceGraphic" in2="effect1_dropShadow_1_1" result="shape"/>
    </filter>
    <filter id="cardShadow" x="24" y="300" width="552" height="232" filterUnits="userSpaceOnUse" color-interpolation-filters="sRGB">
      <feFlood flood-opacity="0" result="BackgroundImageFix"/>
      <feColorMatrix in="SourceAlpha" type="matrix" values="0 0 0 0 0 0 0 0 0 0 0 0 0 0 0 0 0 0 127 0" result="hardAlpha"/>
      <feOffset dy="16"/>
      <feGaussianBlur stdDeviation="18"/>
      <feColorMatrix type="matrix" values="0 0 0 0 0.13 0 0 0 0 0.11 0 0 0 0 0.07 0 0 0 0.12 0"/>
      <feBlend mode="normal" in2="BackgroundImageFix" result="effect1_dropShadow_1_1"/>
      <feBlend mode="normal" in="SourceGraphic" in2="effect1_dropShadow_1_1" result="shape"/>
    </filter>
    <clipPath id="phoneClip">
      <rect x="792" y="100" width="226" height="478" rx="34"/>
    </clipPath>
    <filter id="phoneShadow" x="734" y="58" width="342" height="586" filterUnits="userSpaceOnUse" color-interpolation-filters="sRGB">
      <feFlood flood-opacity="0" result="BackgroundImageFix"/>
      <feColorMatrix in="SourceAlpha" type="matrix" values="0 0 0 0 0 0 0 0 0 0 0 0 0 0 0 0 0 0 127 0" result="hardAlpha"/>
      <feOffset dy="16"/>
      <feGaussianBlur stdDeviation="18"/>
      <feColorMatrix type="matrix" values="0 0 0 0 0.13 0 0 0 0 0.11 0 0 0 0 0.07 0 0 0 0.18 0"/>
      <feBlend mode="normal" in2="BackgroundImageFix" result="effect1_dropShadow_1_1"/>
      <feBlend mode="normal" in="SourceGraphic" in2="effect1_dropShadow_1_1" result="shape"/>
    </filter>
  </defs>

  <rect width="1200" height="630" rx="48" fill="url(#page)"/>

  <g opacity="0.12" stroke-linecap="round">
    <circle cx="1040" cy="118" r="206" stroke="#C79A52" stroke-width="4"/>
    <circle cx="108" cy="562" r="256" stroke="#3A6B73" stroke-width="4"/>
    <path d="M92 122H398" stroke="#3A6B73" stroke-width="4"/>
    <path d="M730 112H904L966 158H1096V236H952L884 296H746" stroke="#C79A52" stroke-width="4" stroke-linejoin="round"/>
    <path d="M118 520H320L392 470H582V546H392L314 594H160" stroke="#3A6B73" stroke-width="4" stroke-linejoin="round"/>
    <path d="M138 278H438" stroke="#C79A52" stroke-width="4"/>
    <path d="M138 302H504" stroke="#3A6B73" stroke-width="2.8"/>
    <path d="M136 430H590" stroke="#3A6B73" stroke-width="3.4"/>
    <path d="M126 454H414L474 420H688" stroke="#C79A52" stroke-width="3.4" stroke-linejoin="round"/>
    <path d="M804 516H948L990 474H1080" stroke="#3A6B73" stroke-width="3.4" stroke-linejoin="round"/>
  </g>

  <g opacity="0.09" fill="none" stroke="#3A6B73" stroke-linecap="round" stroke-linejoin="round">
    <path d="M880 420H1008L1054 468H1120V540H1038L994 584H904"/>
    <path d="M188 568H298L352 520H534"/>
  </g>

  <g filter="url(#softShadow)">
    <rect x="48" y="48" width="1104" height="534" rx="38" fill="rgba(255,253,248,0.64)"/>
    <rect x="48.5" y="48.5" width="1103" height="533" rx="37.5" stroke="#E2D7C7"/>
  </g>

  <g transform="translate(92 84)">
    <rect width="58" height="58" rx="18" fill="#FFF9EE"/>
    <path d="M41.1 16.24H24.86L15 29L24.86 41.76H41.1M29.52 28.48L40.98 41.61M40.72 16.82L32.38 26.12L29.54 28.42" stroke="#847314" stroke-width="4.2" stroke-linecap="round" stroke-linejoin="round"/>
  </g>

  <text x="92" y="194" fill="#1A1712" font-family="Iowan Old Style, Georgia, serif" font-size="86" font-weight="500" letter-spacing="-3.4">Kaze Rwanda</text>
  <text x="94" y="246" fill="#3A6B73" font-family="Avenir Next, Avenir, Segoe UI, sans-serif" font-size="23" font-weight="800" letter-spacing="4">EVENTS · GUEST ACCESS</text>
  <text x="92" y="330" fill="#1A1712" font-family="Avenir Next, Avenir, Segoe UI, sans-serif" font-size="46" font-weight="700" letter-spacing="-1.3">Manage events and</text>
  <text x="92" y="382" fill="#1A1712" font-family="Avenir Next, Avenir, Segoe UI, sans-serif" font-size="46" font-weight="700" letter-spacing="-1.3">guest access in one app.</text>

  <g>
    <rect x="92" y="468" width="278" height="54" rx="18" fill="url(#button)"/>
    <text x="126" y="503" fill="#FFFDF8" font-family="Avenir Next, Avenir, Segoe UI, sans-serif" font-size="24" font-weight="800">kazerwanda.com</text>
  </g>

  <g filter="url(#cardShadow)">
    <rect x="92" y="540" width="214" height="48" rx="20" fill="#FFFDF8" opacity="0.94"/>
    <circle cx="120" cy="564" r="6" fill="#C79A52"/>
    <text x="140" y="571" fill="#1A1712" font-family="Avenir Next, Avenir, Segoe UI, sans-serif" font-size="18" font-weight="800">Kaze Pass ready</text>
  </g>

  <g>
    <rect x="704" y="72" width="412" height="486" rx="38" fill="url(#panel)"/>
    <rect x="704.5" y="72.5" width="411" height="485" rx="37.5" stroke="#E2D7C7"/>
  </g>

  <g filter="url(#phoneShadow)" transform="rotate(-5 905 340)">
    <g clip-path="url(#phoneClip)">
      <image href="app-screens/framed/kaze-home-framed.png" x="792" y="100" width="226" height="478" preserveAspectRatio="xMidYMid slice"/>
    </g>
    <rect x="792.5" y="100.5" width="225" height="477" rx="33.5" stroke="#F5EBDD" stroke-opacity="0.3"/>
  </g>

  <g>
    <rect x="650" y="428" width="184" height="82" rx="24" fill="#FFFDF8" opacity="0.96"/>
    <rect x="650.5" y="428.5" width="183" height="81" rx="23.5" stroke="#E2D7C7"/>
    <text x="676" y="462" fill="#3A6B73" font-family="Avenir Next, Avenir, Segoe UI, sans-serif" font-size="15" font-weight="800" letter-spacing="1.6">OFFLINE AI</text>
    <text x="676" y="489" fill="#1A1712" font-family="Avenir Next, Avenir, Segoe UI, sans-serif" font-size="20" font-weight="700">Runs quietly on device</text>
  </g>

  <g>
    <rect x="990" y="144" width="148" height="70" rx="22" fill="#FFFDF8" opacity="0.96"/>
    <rect x="990.5" y="144.5" width="147" height="69" rx="21.5" stroke="#E2D7C7"/>
    <text x="1014" y="174" fill="#847314" font-family="Avenir Next, Avenir, Segoe UI, sans-serif" font-size="14" font-weight="800" letter-spacing="1.4">KAZE PASS</text>
    <text x="1014" y="199" fill="#1A1712" font-family="Avenir Next, Avenir, Segoe UI, sans-serif" font-size="18" font-weight="700">Guest access ready</text>
  </g>
</svg>
