<svg width="1200" height="630" viewBox="0 0 1200 630" fill="none" xmlns="http://www.w3.org/2000/svg">
  <rect width="1200" height="630" rx="52" fill="#FFF8EA"/>
  <rect x="28" y="28" width="1144" height="574" rx="42" fill="#1F352D"/>
  <path d="M0 480C175 384 297 585 448 489C616 382 723 150 920 196C1035 223 1110 337 1200 312V630H0V480Z" fill="#D8A94E" opacity="0.18"/>
  <path d="M910 -34C1010 38 1006 149 1135 183C1182 195 1213 194 1249 185V-34H910Z" fill="#F0C979" opacity="0.2"/>
  <path d="M99 132C184 74 281 69 367 117C454 166 518 261 606 279C708 300 803 215 912 232C1004 246 1070 326 1129 402" stroke="#F7DCA0" stroke-width="3" opacity="0.26"/>
  <path d="M93 185C202 122 306 120 405 181C505 242 586 345 699 330C824 314 871 199 1000 251C1081 284 1119 369 1152 459" stroke="#F7DCA0" stroke-width="2" opacity="0.18"/>
  <circle cx="1005" cy="468" r="118" fill="#FFF8EA" opacity="0.08"/>
  <circle cx="1010" cy="468" r="72" fill="#FFF8EA" opacity="0.08"/>
  <g opacity="0.18">
    <path d="M998 416H944L911 468L944 520H998M961 466L998 519M997 417L969 453L960 466" stroke="#FFF8EA" stroke-width="13" stroke-linecap="round" stroke-linejoin="round"/>
    <path d="M1042 416H988L955 468L988 520H1042M1019 468H1071" stroke="#FFF8EA" stroke-width="16" stroke-linecap="round" stroke-linejoin="round"/>
    <circle cx="1071" cy="468" r="8" fill="#FFF8EA"/>
  </g>
  <g transform="translate(92 86)">
    <rect width="78" height="78" rx="20" fill="#FFF8EA"/>
    <path d="M54.6 21.84H32.76L19.5 39L32.76 56.16H54.6M39.62 38.44L54.34 55.69M53.98 22.65L43.31 34.52L39.65 38.36" stroke="#6D5E0F" stroke-width="5" stroke-linecap="round" stroke-linejoin="round"/>
  </g>
  <g transform="translate(190 86)">
    <rect width="78" height="78" rx="20" fill="#FFF8EA" opacity="0.88"/>
    <path d="M54.6 21.84H32.76L19.5 39L32.76 56.16H54.6M45.24 39H62.4" stroke="#6D5E0F" stroke-width="7" stroke-linecap="round" stroke-linejoin="round"/>
    <circle cx="62.4" cy="39" r="3.6" fill="#6D5E0F"/>
  </g>
  <text x="92" y="250" fill="#FFF8EA" font-family="Georgia, 'Times New Roman', serif" font-size="98" font-weight="700" letter-spacing="-4">Kaze Rwanda</text>
  <text x="98" y="320" fill="#F7DCA0" font-family="Avenir Next, Helvetica, Arial, sans-serif" font-size="30" font-weight="700" letter-spacing="5">VENUES • INVITES • STAYS</text>
  <text x="96" y="406" fill="#FFF8EA" opacity="0.92" font-family="Avenir Next, Helvetica, Arial, sans-serif" font-size="38" font-weight="500" letter-spacing="-0.5">Discover wedding venues, conference rooms,</text>
  <text x="96" y="456" fill="#FFF8EA" opacity="0.92" font-family="Avenir Next, Helvetica, Arial, sans-serif" font-size="38" font-weight="500" letter-spacing="-0.5">guest services, and invitation experiences.</text>
  <rect x="96" y="516" width="322" height="58" rx="29" fill="#FFF8EA"/>
  <text x="132" y="554" fill="#1F352D" font-family="Avenir Next, Helvetica, Arial, sans-serif" font-size="25" font-weight="800">kazerwanda.com</text>
</svg>
